<?xml version="1.0" encoding="UTF-8"?>
<svg width="200" height="200" viewBox="0 0 200 200" fill="none" xmlns="http://www.w3.org/2000/svg">
  <!-- Background Circle -->
  <circle cx="100" cy="100" r="95" fill="#111827" stroke="#6D28D9" stroke-width="2"/>
  
  <!-- Soundwave Elements -->
  <path d="M40 100 Q 60 60, 80 100 Q 100 140, 120 100 Q 140 60, 160 100" stroke="#8B5CF6" stroke-width="6" fill="none" stroke-linecap="round"/>
  <path d="M50 100 Q 70 70, 90 100 Q 110 130, 130 100 Q 150 70, 170 100" stroke="#A78BFA" stroke-width="4" fill="none" stroke-linecap="round"/>
  <path d="M30 100 Q 50 50, 70 100 Q 90 150, 110 100 Q 130 50, 150 100 Q 170 150, 190 100" stroke="#7C3AED" stroke-width="3" fill="none" stroke-linecap="round"/>

  <!-- Music Note -->
  <circle cx="130" cy="75" r="12" fill="#7C3AED"/>
  <path d="M130 75 L130 120" stroke="#7C3AED" stroke-width="4" stroke-linecap="round"/>
  <path d="M130 120 C130 125, 125 130, 115 130 C105 130, 100 125, 100 120 C100 115, 105 110, 115 110 C125 110, 130 115, 130 120" fill="#7C3AED"/>
  
  <!-- Sound Pulse Dots -->
  <circle cx="60" cy="80" r="4" fill="#A78BFA"/>
  <circle cx="80" cy="120" r="4" fill="#A78BFA"/>
  <circle cx="100" cy="70" r="4" fill="#A78BFA"/>
  <circle cx="120" cy="130" r="4" fill="#A78BFA"/>
  <circle cx="140" cy="90" r="4" fill="#A78BFA"/>
</svg> 
 
 
 
 
 
 
 
 
 